# xmcd
#
# Track frame offsets:
#	150
#	18777
#	33185
#	46550
#	60027
#	69735
#	81100
#	94262
#	105765
#	123129
#	135277
#	150090
#	165835
#	183275
#	195870
#	210805
#	226505
#	241337
#	253507
#	268267
#
# Disc length: 3850
#
# Revision: 3
# Processed by: cddbd v1.5.1PL0 Copyright (c) Steve Scherf et al.
# Submitted via: OrangeCD 5.2
# Normalized: r2:DSETVAR1
#
DISCID=cd0f0814
DTITLE=Various Artist - Line Dance Fever 9
DYEAR=1999
DGENRE=Country
TTITLE0=The Groovegrass Boyz - Walkin' After Midnight
TTITLE1=Montgomery Gentry - Hillbilly Shoes
TTITLE2=The Dean Brothers - Crazy Little Thing Called Love
TTITLE3=Ronan Hardiman - Dance Above The Rainbow
TTITLE4=Perez Prado - Mambo Number 5
TTITLE5=Coast To Coast - (Do) The Hucklebuck
TTITLE6=Sara Evans - Cryin' Game
TTITLE7=Leann Rimes - I Want To Be A Cowboys Sweetheart
TTITLE8=Danni Leigh - 29 Nights
TTITLE9=Dave Sheriff - Hearts And Flowers
TTITLE10=Sharon B - Pretend
TTITLE11=Paul Rutter - On The Tracks To Tennessee
TTITLE12=Vacquero - Bury The Shovel
TTITLE13=Brady Seals - Love You Too Much
TTITLE14=JoDee Messina - Bye bye
TTITLE15=Deborah Allen - Is It Love Yet
TTITLE16=Tim McGraw - Seventeen
TTITLE17=Trini Triggs - Horse To Mexico
TTITLE18=Newton - Love And Affection
TTITLE19=Engelbert Humperdinck - The Last Waltz
EXTD=
EXTT0=
EXTT1=
EXTT2=
EXTT3=
EXTT4=
EXTT5=
EXTT6=
EXTT7=
EXTT8=
EXTT9=
EXTT10=
EXTT11=
EXTT12=
EXTT13=
EXTT14=
EXTT15=
EXTT16=
EXTT17=
EXTT18=
EXTT19=
PLAYORDER=
